<?xml version="1.0" standalone="no"?>
<!DOCTYPE svg PUBLIC "-//W3C//DTD SVG 20010904//EN"
 "http://www.w3.org/TR/2001/REC-SVG-20010904/DTD/svg10.dtd">
<svg version="1.0" xmlns="http://www.w3.org/2000/svg"
 width="400.000000pt" height="400.000000pt" viewBox="0 0 400.000000 400.000000"
 preserveAspectRatio="xMidYMid meet">
<metadata>
Created by potrace 1.14, written by Peter Selinger 2001-2017
</metadata>
<g transform="translate(0.000000,400.000000) scale(0.100000,-0.100000)"
fill="#000000" stroke="none">
<path d="M2015 3012 c-17 -15 -26 -24 -21 -20 11 8 36 -1 36 -14 0 -7 -5 -6
-13 1 -21 17 -29 1 -9 -18 10 -9 12 -12 5 -7 -7 5 -13 5 -13 0 0 -4 -6 0 -14
11 -22 31 27 59 -661 -386 l-210 -137 -3 -474 -2 -474 32 -19 c18 -10 193
-123 389 -250 195 -128 369 -240 386 -250 l31 -18 244 158 c133 88 321 210
416 272 94 62 172 117 172 123 0 6 5 8 10 5 6 -3 10 -3 10 2 0 4 18 19 40 32
l40 25 0 467 c0 497 -1 498 -47 464 -24 -19 -28 -18 -30 5 -1 11 3 20 8 20 6
0 7 -4 4 -10 -3 -5 -2 -10 4 -10 18 0 21 17 6 30 -8 7 -15 9 -15 4 0 -5 -4 -4
-8 1 -10 15 -72 58 -72 50 0 -3 -10 4 -22 15 -15 14 -30 19 -46 15 -12 -3 -31
-1 -42 5 -16 9 -18 8 -14 -5 4 -8 11 -15 17 -15 5 0 3 -8 -6 -18 -10 -10 -14
-22 -10 -26 4 -4 -1 -4 -11 0 -18 7 -18 8 -1 20 9 7 14 17 10 23 -8 14 -32 14
-40 1 -4 -6 1 -7 12 -3 10 3 15 2 11 -2 -5 -5 -20 -9 -36 -10 -17 -1 -172 -94
-410 -245 l-383 -244 3 -140 3 -139 90 -62 90 -62 190 119 c105 65 198 123
208 129 16 9 17 2 17 -99 l0 -108 -152 -104 c-147 -102 -205 -134 -195 -106 4
9 -4 12 -24 11 -15 -1 -26 2 -23 7 4 5 13 7 21 3 13 -4 14 -3 3 9 -11 14 -15
13 -35 -2 -15 -11 -19 -19 -11 -24 8 -6 8 -8 -1 -8 -19 0 -26 20 -9 26 32 12
24 33 -25 65 -28 18 -56 37 -62 43 -29 28 -216 154 -220 148 -2 -4 -1 0 2 8 3
8 8 113 11 232 3 125 9 221 15 226 6 6 147 99 315 207 276 178 450 300 450
313 0 2 -8 -2 -17 -9 -12 -10 -15 -10 -9 -1 9 15 -7 31 -54 58 -19 10 -41 25
-48 32 -7 6 -19 12 -27 12 -7 0 -16 7 -19 16 -4 9 -13 14 -22 10 -8 -3 -13 -2
-9 3 6 10 -46 51 -64 51 -6 0 -11 4 -11 9 0 5 -9 13 -21 16 -12 4 -30 16 -40
26 -24 24 -28 24 -64 -9z m41 2 c0 -9 5 -19 12 -21 8 -3 10 1 6 14 -6 16 -5
16 7 3 8 -8 23 -24 34 -34 11 -10 14 -16 7 -12 -8 5 -28 -4 -49 -20 l-37 -28
19 26 c11 14 22 25 25 25 3 -1 7 2 10 8 3 5 -2 10 -10 11 -8 0 -23 4 -33 8
-14 7 -15 11 -6 22 15 18 17 18 15 -2z m134 -79 c16 -19 10 -19 -26 0 -25 13
-26 15 -8 15 12 0 27 -7 34 -15z m-70 -5 c8 -5 12 -11 10 -14 -3 -2 -14 2 -24
10 -22 15 -10 19 14 4z m-30 -21 c0 -6 -4 -7 -10 -4 -5 3 -10 11 -10 16 0 6 5
7 10 4 6 -3 10 -11 10 -16z m100 -4 c0 -7 -30 -13 -34 -7 -3 4 4 9 15 9 10 1
19 0 19 -2z m-76 -17 c-5 -8 -2 -9 9 -5 25 9 88 -36 76 -54 -8 -13 -13 -5 -10
15 1 5 -5 6 -13 3 -9 -4 -15 -1 -13 6 1 7 -4 11 -11 9 -17 -3 -52 16 -52 28 0
6 5 10 11 10 5 0 7 -5 3 -12z m131 -8 c3 -5 1 -10 -4 -10 -6 0 -11 5 -11 10 0
6 2 10 4 10 3 0 8 -4 11 -10z m-24 -21 l24 -20 -30 17 c-39 24 -40 24 -28 24
6 0 21 -9 34 -21z m149 -61 c0 -6 -12 1 -26 16 -15 14 -31 26 -36 26 -10 0
-38 25 -38 34 0 3 23 -10 50 -30 28 -20 50 -41 50 -46z m-94 41 c19 -22 19
-22 -3 -10 -13 6 -23 16 -23 21 0 15 5 12 26 -11z m-26 -21 c0 -4 6 -8 14 -8
8 0 18 -4 21 -10 4 -7 -3 -7 -20 0 -34 13 -38 13 -29 -2 4 -7 3 -9 -1 -5 -15
13 -14 34 1 34 8 0 14 -4 14 -9z m81 -15 c13 -17 13 -17 -6 -3 -11 8 -22 16
-24 17 -2 2 0 3 6 3 6 0 17 -8 24 -17z m4 -33 c-9 -14 8 -13 23 2 6 6 14 9 17
6 3 -3 -6 -13 -20 -22 -14 -9 -25 -12 -25 -6 0 6 -6 8 -12 4 -9 -5 -9 -2 1 9
15 18 26 23 16 7z m354 -186 c14 -12 -19 -1 -35 12 -18 14 -18 14 6 3 14 -6
27 -13 29 -15z m-42 -10 c-3 -3 -12 -4 -19 -1 -8 3 -5 6 6 6 11 1 17 -2 13 -5z
m121 -9 c4 -5 -1 -5 -12 -1 -10 3 -26 1 -34 -6 -10 -8 -13 -9 -9 -1 4 6 1 14
-5 16 -7 3 2 4 20 3 18 -2 36 -7 40 -11z m-83 -53 c-3 -3 -11 0 -18 7 -9 10
-8 11 6 5 10 -3 15 -9 12 -12z m88 -46 c-4 -5 0 -7 8 -4 9 4 15 -1 15 -12 0
-16 -3 -16 -28 3 -15 11 -28 21 -28 22 0 0 9 1 19 1 11 0 17 -5 14 -10z m27
-50 c0 -3 -4 -8 -10 -11 -5 -3 -10 -1 -10 4 0 6 5 11 10 11 6 0 10 -2 10 -4z
m-1204 -198 c4 -7 3 -8 -5 -4 -7 4 -15 -2 -20 -16 -6 -14 -10 -17 -10 -7 -1 8
4 20 11 27 15 15 15 15 24 0z m-1 -27 c3 -5 1 -12 -5 -16 -5 -3 -10 1 -10 9 0
18 6 21 15 7z m48 -419 c-3 -12 -9 -22 -14 -22 -5 0 -3 11 3 25 13 30 20 28
11 -3z m55 -12 c13 -11 21 -24 18 -29 -4 -5 2 -14 11 -20 10 -6 13 -11 7 -11
-19 0 -65 41 -58 52 4 6 0 14 -7 19 -8 5 -9 9 -4 9 6 -1 20 -9 33 -20z m-93
-12 c14 -6 25 -16 25 -22 0 -6 -5 -5 -12 2 -18 18 -32 14 -17 -5 12 -14 11
-14 -13 1 -15 10 -25 22 -22 27 7 11 8 11 39 -3z m82 -38 c14 -11 21 -20 16
-20 -5 0 -14 5 -21 12 -9 9 -12 9 -12 1 0 -12 38 -43 52 -43 4 0 5 7 1 16 -5
14 -3 13 15 -2 26 -22 25 -21 10 -30 -7 -4 -8 -3 -4 4 8 14 -3 15 -23 3 -11
-7 -10 -11 6 -20 11 -5 22 -8 25 -6 3 3 5 -2 5 -9 0 -12 -7 -11 -29 5 -15 11
-25 25 -22 30 3 6 -2 9 -12 7 -11 -2 -19 3 -19 12 0 8 -8 15 -17 15 -10 0 -23
6 -30 13 -9 9 -9 12 0 12 7 0 12 -5 12 -11 0 -8 5 -7 15 1 13 11 13 15 3 21
-7 5 -9 9 -5 9 5 0 20 -9 34 -20z m76 6 c10 -8 15 -16 10 -18 -4 -3 -16 3 -25
14 -21 21 -11 24 15 4z m132 -104 c-3 -3 -11 0 -18 7 -9 10 -8 11 6 5 10 -3
15 -9 12 -12z m-31 -1 c6 -10 -24 -25 -32 -16 -3 3 0 5 7 5 7 0 9 5 6 10 -3 6
-2 10 4 10 5 0 12 -4 15 -9z m83 -26 c1 0 -8 -7 -20 -14 -20 -13 -21 -13 -8 2
9 11 10 17 2 17 -6 0 -11 5 -11 11 0 8 6 7 18 -2 9 -7 18 -14 19 -14z m867 3
c-5 -8 -2 -9 9 -5 22 9 44 15 34 10 -4 -3 -5 -9 -2 -14 4 -5 -2 -6 -11 -2 -12
4 -15 3 -10 -5 5 -8 1 -10 -10 -5 -14 5 -16 3 -11 -11 4 -10 3 -15 -3 -11 -5
3 -8 16 -6 28 6 28 5 27 12 27 3 0 2 -5 -2 -12z m-968 -16 c-15 -3 -13 -8 15
-34 19 -16 27 -26 19 -22 -8 5 -28 20 -44 34 -16 14 -33 24 -38 22 -5 -1 -7 1
-4 6 3 5 20 6 38 3 21 -3 26 -6 14 -9z m51 12 c-3 -3 -12 -4 -19 -1 -8 3 -5 6
6 6 11 1 17 -2 13 -5z m11 -49 c24 -27 37 -31 48 -14 4 8 9 7 15 -2 8 -12 11
-11 19 1 5 8 10 10 10 4 0 -6 -11 -21 -25 -34 -23 -22 -25 -22 -50 -6 -14 9
-23 21 -20 26 3 5 -5 18 -17 29 -12 12 -17 21 -12 21 6 0 20 -11 32 -25z"/>
<path d="M1685 1740 c3 -5 11 -10 16 -10 6 0 7 5 4 10 -3 6 -11 10 -16 10 -6
0 -7 -4 -4 -10z"/>
<path d="M1928 1494 c20 -16 36 -18 28 -5 -4 5 0 11 6 13 7 3 -1 5 -19 5 -29
0 -30 -2 -15 -13z"/>
<path d="M2626 2653 c-3 -3 -3 -10 0 -14 7 -12 34 -11 34 0 0 11 -26 22 -34
14z"/>
</g>
</svg>
